<svg xmlns="http://www.w3.org/2000/svg" xmlns:xlink="http://www.w3.org/1999/xlink" version="1.1" class="marks" width="451" height="371" viewBox="0 0 451 371"><rect width="451" height="371" fill="white"/><g fill="none" stroke-miterlimit="10" transform="translate(102,27)"><g class="mark-group role-frame root" role="graphics-object" aria-roledescription="group mark container"><g transform="translate(0,0)"><path class="background" aria-hidden="true" d="M0.5,0.5h180v300h-180Z" stroke="#ddd"/><g><g class="mark-group role-axis" aria-hidden="true"><g transform="translate(0.5,0.5)"><path class="background" aria-hidden="true" d="M0,0h0v0h0Z" pointer-events="none"/><g><g class="mark-rule role-axis-grid" pointer-events="none"><line transform="translate(0,300)" x2="180" y2="0" stroke="#ddd" stroke-width="1" opacity="1"/><line transform="translate(0,273)" x2="180" y2="0" stroke="#ddd" stroke-width="1" opacity="1"/><line transform="translate(0,245)" x2="180" y2="0" stroke="#ddd" stroke-width="1" opacity="1"/><line transform="translate(0,218)" x2="180" y2="0" stroke="#ddd" stroke-width="1" opacity="1"/><line transform="translate(0,191)" x2="180" y2="0" stroke="#ddd" stroke-width="1" opacity="1"/><line transform="translate(0,164)" x2="180" y2="0" stroke="#ddd" stroke-width="1" opacity="1"/><line transform="translate(0,136)" x2="180" y2="0" stroke="#ddd" stroke-width="1" opacity="1"/><line transform="translate(0,109)" x2="180" y2="0" stroke="#ddd" stroke-width="1" opacity="1"/><line transform="translate(0,82)" x2="180" y2="0" stroke="#ddd" stroke-width="1" opacity="1"/><line transform="translate(0,55)" x2="180" y2="0" stroke="#ddd" stroke-width="1" opacity="1"/><line transform="translate(0,27)" x2="180" y2="0" stroke="#ddd" stroke-width="1" opacity="1"/><line transform="translate(0,0)" x2="180" y2="0" stroke="#ddd" stroke-width="1" opacity="1"/></g></g><path class="foreground" aria-hidden="true" d="" pointer-events="none" display="none"/></g></g><g class="mark-group role-axis" role="graphics-symbol" aria-roledescription="axis" aria-label="X-axis titled 'Midwest States' for a discrete scale with 9 values: IA, IL, IN, KS, MI, ending with WI"><g transform="translate(0.5,300.5)"><path class="background" aria-hidden="true" d="M0,0h0v0h0Z" pointer-events="none"/><g><g class="mark-rule role-axis-tick" pointer-events="none"><line transform="translate(10,0)" x2="0" y2="5" stroke="#888" stroke-width="1" opacity="1"/><line transform="translate(30,0)" x2="0" y2="5" stroke="#888" stroke-width="1" opacity="1"/><line transform="translate(50,0)" x2="0" y2="5" stroke="#888" stroke-width="1" opacity="1"/><line transform="translate(70,0)" x2="0" y2="5" stroke="#888" stroke-width="1" opacity="1"/><line transform="translate(90,0)" x2="0" y2="5" stroke="#888" stroke-width="1" opacity="1"/><line transform="translate(110,0)" x2="0" y2="5" stroke="#888" stroke-width="1" opacity="1"/><line transform="translate(130,0)" x2="0" y2="5" stroke="#888" stroke-width="1" opacity="1"/><line transform="translate(150,0)" x2="0" y2="5" stroke="#888" stroke-width="1" opacity="1"/><line transform="translate(170,0)" x2="0" y2="5" stroke="#888" stroke-width="1" opacity="1"/></g><g class="mark-text role-axis-label" pointer-events="none"><text text-anchor="end" transform="translate(10,7) rotate(270) translate(0,3)" font-family="sans-serif" font-size="10px" fill="#000" opacity="1">IA</text><text text-anchor="end" transform="translate(30,7) rotate(270) translate(0,3)" font-family="sans-serif" font-size="10px" fill="#000" opacity="1">IL</text><text text-anchor="end" transform="translate(50,7) rotate(270) translate(0,3)" font-family="sans-serif" font-size="10px" fill="#000" opacity="1">IN</text><text text-anchor="end" transform="translate(70,7) rotate(270) translate(0,3)" font-family="sans-serif" font-size="10px" fill="#000" opacity="1">KS</text><text text-anchor="end" transform="translate(90,7) rotate(270) translate(0,3)" font-family="sans-serif" font-size="10px" fill="#000" opacity="1">MI</text><text text-anchor="end" transform="translate(110,7) rotate(270) translate(0,3)" font-family="sans-serif" font-size="10px" fill="#000" opacity="1">MN</text><text text-anchor="end" transform="translate(130,7) rotate(270) translate(0,3)" font-family="sans-serif" font-size="10px" fill="#000" opacity="1">MO</text><text text-anchor="end" transform="translate(150,7) rotate(270) translate(0,3)" font-family="sans-serif" font-size="10px" fill="#000" opacity="1">OH</text><text text-anchor="end" transform="translate(170,7) rotate(270) translate(0,3)" font-family="sans-serif" font-size="10px" fill="#000" opacity="1">WI</text></g><g class="mark-rule role-axis-domain" pointer-events="none"><line transform="translate(0,0)" x2="180" y2="0" stroke="#888" stroke-width="1" opacity="1"/></g><g class="mark-text role-axis-title" pointer-events="none"><text text-anchor="middle" transform="translate(90,36.1083984375)" font-family="sans-serif" font-size="11px" font-weight="bold" fill="#000" opacity="1">Midwest States</text></g></g><path class="foreground" aria-hidden="true" d="" pointer-events="none" display="none"/></g></g><g class="mark-group role-axis" role="graphics-symbol" aria-roledescription="axis" aria-label="Y-axis titled 'Percent of Licenses' for a linear scale with values from 0 to 110"><g transform="translate(0.5,0.5)"><path class="background" aria-hidden="true" d="M0,0h0v0h0Z" pointer-events="none"/><g><g class="mark-rule role-axis-tick" pointer-events="none"><line transform="translate(0,300)" x2="-5" y2="0" stroke="#888" stroke-width="1" opacity="1"/><line transform="translate(0,273)" x2="-5" y2="0" stroke="#888" stroke-width="1" opacity="1"/><line transform="translate(0,245)" x2="-5" y2="0" stroke="#888" stroke-width="1" opacity="1"/><line transform="translate(0,218)" x2="-5" y2="0" stroke="#888" stroke-width="1" opacity="1"/><line transform="translate(0,191)" x2="-5" y2="0" stroke="#888" stroke-width="1" opacity="1"/><line transform="translate(0,164)" x2="-5" y2="0" stroke="#888" stroke-width="1" opacity="1"/><line transform="translate(0,136)" x2="-5" y2="0" stroke="#888" stroke-width="1" opacity="1"/><line transform="translate(0,109)" x2="-5" y2="0" stroke="#888" stroke-width="1" opacity="1"/><line transform="translate(0,82)" x2="-5" y2="0" stroke="#888" stroke-width="1" opacity="1"/><line transform="translate(0,55)" x2="-5" y2="0" stroke="#888" stroke-width="1" opacity="1"/><line transform="translate(0,27)" x2="-5" y2="0" stroke="#888" stroke-width="1" opacity="1"/><line transform="translate(0,0)" x2="-5" y2="0" stroke="#888" stroke-width="1" opacity="1"/></g><g class="mark-text role-axis-label" pointer-events="none"><text text-anchor="end" transform="translate(-7,303)" font-family="sans-serif" font-size="10px" fill="#000" opacity="1">0</text><text text-anchor="end" transform="translate(-7,275.7272727272727)" font-family="sans-serif" font-size="10px" fill="#000" opacity="1">10</text><text text-anchor="end" transform="translate(-7,248.45454545454544)" font-family="sans-serif" font-size="10px" fill="#000" opacity="1">20</text><text text-anchor="end" transform="translate(-7,221.1818181818182)" font-family="sans-serif" font-size="10px" fill="#000" opacity="1">30</text><text text-anchor="end" transform="translate(-7,193.9090909090909)" font-family="sans-serif" font-size="10px" fill="#000" opacity="1">40</text><text text-anchor="end" transform="translate(-7,166.63636363636363)" font-family="sans-serif" font-size="10px" fill="#000" opacity="1">50</text><text text-anchor="end" transform="translate(-7,139.36363636363637)" font-family="sans-serif" font-size="10px" fill="#000" opacity="1">60</text><text text-anchor="end" transform="translate(-7,112.0909090909091)" font-family="sans-serif" font-size="10px" fill="#000" opacity="1">70</text><text text-anchor="end" transform="translate(-7,84.81818181818181)" font-family="sans-serif" font-size="10px" fill="#000" opacity="1">80</text><text text-anchor="end" transform="translate(-7,57.54545454545453)" font-family="sans-serif" font-size="10px" fill="#000" opacity="1">90</text><text text-anchor="end" transform="translate(-7,30.27272727272728)" font-family="sans-serif" font-size="10px" fill="#000" opacity="1">100</text><text text-anchor="end" transform="translate(-7,3)" font-family="sans-serif" font-size="10px" fill="#000" opacity="1">110</text></g><g class="mark-rule role-axis-domain" pointer-events="none"><line transform="translate(0,300)" x2="0" y2="-300" stroke="#888" stroke-width="1" opacity="1"/></g><g class="mark-text role-axis-title" pointer-events="none"><text text-anchor="middle" transform="translate(-27.6845703125,150) rotate(-90) translate(0,-2)" font-family="sans-serif" font-size="11px" font-weight="bold" fill="#000" opacity="1">Percent of Licenses</text></g></g><path class="foreground" aria-hidden="true" d="" pointer-events="none" display="none"/></g></g><g class="mark-group role-scope pathgroup" role="graphics-object" aria-roledescription="group mark container"><g transform="translate(0,0)"><path class="background" aria-hidden="true" d="M0,0h180v300h-180Z"/><g><g class="mark-area role-mark marks" role="graphics-object" aria-roledescription="area mark container"><path aria-label="Midwest States: IA; Percent of Licenses: 33.3333333333; License Type: COSMO" role="graphics-symbol" aria-roledescription="area mark" d="M10,27.273L30,28.407L50,27.273L70,27.273L90,27.273L110,27.273L130,27.273L150,27.273L170,27.273L170,179.132L150,113.397L130,108.777L110,105.195L90,130.721L70,136.364L50,140.743L30,132.003L10,118.182Z" fill="#5254a3" opacity="1"/></g></g><path class="foreground" aria-hidden="true" d="" display="none"/></g><g transform="translate(0,0)"><path class="background" aria-hidden="true" d="M0,0h180v300h-180Z"/><g><g class="mark-area role-mark marks" role="graphics-object" aria-roledescription="area mark container"><path aria-label="Midwest States: IA; Percent of Licenses: 9.80392156863; License Type: DENTAL" role="graphics-symbol" aria-roledescription="area mark" d="M10,118.182L30,132.003L50,140.743L70,136.364L90,130.721L110,105.195L130,108.777L150,113.397L170,179.132L170,219.421L150,170.813L130,143.26L110,144.156L90,234.169L70,136.364L50,166.622L30,149.79L10,144.92Z" fill="#6b6ecf" opacity="1"/></g></g><path class="foreground" aria-hidden="true" d="" display="none"/></g><g transform="translate(0,0)"><path class="background" aria-hidden="true" d="M0,0h180v300h-180Z"/><g><g class="mark-area role-mark marks" role="graphics-object" aria-roledescription="area mark container"><path aria-label="Midwest States: IA; Percent of Licenses: 49.0196078431; License Type: DETECTIVE BOARD" role="graphics-symbol" aria-roledescription="area mark" d="M10,144.92L30,151.17L50,174.585L70,136.364L90,243.574L110,163.636L130,152.665L150,170.813L170,225.62L170,290.702L150,271.292L130,293.73L110,280.519L90,290.596L70,245.455L50,290.046L30,292.425L10,278.61Z" fill="#637939" opacity="1"/></g></g><path class="foreground" aria-hidden="true" d="" display="none"/></g><g transform="translate(0,0)"><path class="background" aria-hidden="true" d="M0,0h180v300h-180Z"/><g><g class="mark-area role-mark marks" role="graphics-object" aria-roledescription="area mark container"><path aria-label="Midwest States: IA; Percent of Licenses: 3.92156862745; License Type: DIETETIC AND NUTRITION" role="graphics-symbol" aria-roledescription="area mark" d="M10,278.61L30,292.425L50,290.046L70,245.455L90,290.596L110,280.519L130,293.73L150,271.292L170,290.702L170,290.702L150,285.646L130,293.73L110,280.519L90,290.596L70,245.455L50,294.028L30,294.234L10,289.305Z" fill="#8ca252" opacity="1"/></g></g><path class="foreground" aria-hidden="true" d="" display="none"/></g><g transform="translate(0,0)"><path class="background" aria-hidden="true" d="M0,0h180v300h-180Z"/><g><g class="mark-area role-mark marks" role="graphics-object" aria-roledescription="area mark container"><path aria-label="Midwest States: IA; Percent of Licenses: 3.92156862745; License Type: FUNERAL AND EMBALMER" role="graphics-symbol" aria-roledescription="area mark" d="M10,289.305L30,294.234L50,294.028L70,245.455L90,290.596L110,280.519L130,293.73L150,285.646L170,290.702L170,293.802L150,300L130,300L110,300L90,300L70,300L50,294.028L30,296.657L10,300Z" fill="#b5cf6b" opacity="1"/></g></g><path class="foreground" aria-hidden="true" d="" display="none"/></g><g transform="translate(0,0)"><path class="background" aria-hidden="true" d="M0,0h180v300h-180Z"/><g><g class="mark-area role-mark marks" role="graphics-object" aria-roledescription="area mark container"><path aria-label="Midwest States: IA; Percent of Licenses: 0; License Type: COMM ASSOC MGR" role="graphics-symbol" aria-roledescription="area mark" d="M10,27.273L30,27.273L50,27.273L70,27.273L90,27.273L110,27.273L130,27.273L150,27.273L170,27.273L170,27.273L150,27.273L130,27.273L110,27.273L90,27.273L70,27.273L50,27.273L30,28.407L10,27.273Z" fill="#393b79" opacity="1"/></g></g><path class="foreground" aria-hidden="true" d="" display="none"/></g><g transform="translate(0,0)"><path class="background" aria-hidden="true" d="M0,0h180v300h-180Z"/><g><g class="mark-area role-mark marks" role="graphics-object" aria-roledescription="area mark container"><path aria-label="Midwest States: IA; Percent of Licenses: 0; License Type: DESIGN FIRM" role="graphics-symbol" aria-roledescription="area mark" d="M10,144.92L30,149.79L50,166.622L70,136.364L90,234.169L110,144.156L130,143.26L150,170.813L170,219.421L170,225.62L150,170.813L130,152.665L110,163.636L90,243.574L70,136.364L50,174.585L30,151.17L10,144.92Z" fill="#9c9ede" opacity="1"/></g></g><path class="foreground" aria-hidden="true" d="" display="none"/></g><g transform="translate(0,0)"><path class="background" aria-hidden="true" d="M0,0h180v300h-180Z"/><g><g class="mark-area role-mark marks" role="graphics-object" aria-roledescription="area mark container"><path aria-label="Midwest States: IA; Percent of Licenses: 0; License Type: HOME INSPECTOR" role="graphics-symbol" aria-roledescription="area mark" d="M10,300L30,296.657L50,294.028L70,300L90,300L110,300L130,300L150,300L170,293.802L170,300L150,300L130,300L110,300L90,300L70,300L50,300L30,297.884L10,300Z" fill="#cedb9c" opacity="1"/></g></g><path class="foreground" aria-hidden="true" d="" display="none"/></g><g transform="translate(0,0)"><path class="background" aria-hidden="true" d="M0,0h180v300h-180Z"/><g><g class="mark-area role-mark marks" role="graphics-object" aria-roledescription="area mark container"><path aria-label="Midwest States: IA; Percent of Licenses: 0; License Type: LIMITED LIABILITY CO" role="graphics-symbol" aria-roledescription="area mark" d="M10,300L30,297.884L50,300L70,300L90,300L110,300L130,300L150,300L170,300L170,300L150,300L130,300L110,300L90,300L70,300L50,300L30,298.528L10,300Z" fill="#8c6d31" opacity="1"/></g></g><path class="foreground" aria-hidden="true" d="" display="none"/></g><g transform="translate(0,0)"><path class="background" aria-hidden="true" d="M0,0h180v300h-180Z"/><g><g class="mark-area role-mark marks" role="graphics-object" aria-roledescription="area mark container"><path aria-label="Midwest States: IA; Percent of Licenses: 0; License Type: MASSAGE LICENSING BD" role="graphics-symbol" aria-roledescription="area mark" d="M10,300L30,298.528L50,300L70,300L90,300L110,300L130,300L150,300L170,300L170,300L150,300L130,300L110,300L90,300L70,300L50,300L30,300L10,300Z" fill="#bd9e39" opacity="1"/></g></g><path class="foreground" aria-hidden="true" d="" display="none"/></g></g><g class="mark-group role-legend" role="graphics-symbol" aria-roledescription="legend" aria-label="Symbol legend titled 'License Type' for fill color with 10 values: COMM ASSOC MGR, COSMO, DENTAL, DESIGN FIRM, DETECTIVE BOARD, ending with MASSAGE LICENSING BD"><g transform="translate(198,0)"><path class="background" aria-hidden="true" d="M0,0h146v144h-146Z" pointer-events="none"/><g><g class="mark-group role-legend-entry"><g transform="translate(0,16)"><path class="background" aria-hidden="true" d="M0,0h0v0h0Z" pointer-events="none"/><g><g class="mark-group role-scope License_Type_legend_entries" role="graphics-object" aria-roledescription="group mark container"><g transform="translate(0,0)"><path class="background" aria-hidden="true" d="M0,0h145.4677734375v11h-145.4677734375Z" opacity="1"/><g><g class="mark-symbol role-legend-symbol License_Type_legend_symbols"><path transform="translate(6,6)" d="M5,0A5,5,0,1,1,-5,0A5,5,0,1,1,5,0" fill="#393b79" stroke-width="1.5" opacity="1"/></g><g class="mark-text role-legend-label License_Type_legend_labels"><text text-anchor="start" transform="translate(16,9)" font-family="sans-serif" font-size="10px" fill="#000" opacity="1">COMM ASSOC MGR</text></g></g><path class="foreground" aria-hidden="true" d="" display="none"/></g><g transform="translate(0,13)"><path class="background" aria-hidden="true" d="M0,0h145.4677734375v11h-145.4677734375Z" opacity="1"/><g><g class="mark-symbol role-legend-symbol License_Type_legend_symbols"><path transform="translate(6,6)" d="M5,0A5,5,0,1,1,-5,0A5,5,0,1,1,5,0" fill="#5254a3" stroke-width="1.5" opacity="1"/></g><g class="mark-text role-legend-label License_Type_legend_labels"><text text-anchor="start" transform="translate(16,9)" font-family="sans-serif" font-size="10px" fill="#000" opacity="1">COSMO</text></g></g><path class="foreground" aria-hidden="true" d="" display="none"/></g><g transform="translate(0,26)"><path class="background" aria-hidden="true" d="M0,0h145.4677734375v11h-145.4677734375Z" opacity="1"/><g><g class="mark-symbol role-legend-symbol License_Type_legend_symbols"><path transform="translate(6,6)" d="M5,0A5,5,0,1,1,-5,0A5,5,0,1,1,5,0" fill="#6b6ecf" stroke-width="1.5" opacity="1"/></g><g class="mark-text role-legend-label License_Type_legend_labels"><text text-anchor="start" transform="translate(16,9)" font-family="sans-serif" font-size="10px" fill="#000" opacity="1">DENTAL</text></g></g><path class="foreground" aria-hidden="true" d="" display="none"/></g><g transform="translate(0,39)"><path class="background" aria-hidden="true" d="M0,0h145.4677734375v11h-145.4677734375Z" opacity="1"/><g><g class="mark-symbol role-legend-symbol License_Type_legend_symbols"><path transform="translate(6,6)" d="M5,0A5,5,0,1,1,-5,0A5,5,0,1,1,5,0" fill="#9c9ede" stroke-width="1.5" opacity="1"/></g><g class="mark-text role-legend-label License_Type_legend_labels"><text text-anchor="start" transform="translate(16,9)" font-family="sans-serif" font-size="10px" fill="#000" opacity="1">DESIGN FIRM</text></g></g><path class="foreground" aria-hidden="true" d="" display="none"/></g><g transform="translate(0,52)"><path class="background" aria-hidden="true" d="M0,0h145.4677734375v11h-145.4677734375Z" opacity="1"/><g><g class="mark-symbol role-legend-symbol License_Type_legend_symbols"><path transform="translate(6,6)" d="M5,0A5,5,0,1,1,-5,0A5,5,0,1,1,5,0" fill="#637939" stroke-width="1.5" opacity="1"/></g><g class="mark-text role-legend-label License_Type_legend_labels"><text text-anchor="start" transform="translate(16,9)" font-family="sans-serif" font-size="10px" fill="#000" opacity="1">DETECTIVE BOARD</text></g></g><path class="foreground" aria-hidden="true" d="" display="none"/></g><g transform="translate(0,65)"><path class="background" aria-hidden="true" d="M0,0h145.4677734375v11h-145.4677734375Z" opacity="1"/><g><g class="mark-symbol role-legend-symbol License_Type_legend_symbols"><path transform="translate(6,6)" d="M5,0A5,5,0,1,1,-5,0A5,5,0,1,1,5,0" fill="#8ca252" stroke-width="1.5" opacity="1"/></g><g class="mark-text role-legend-label License_Type_legend_labels"><text text-anchor="start" transform="translate(16,9)" font-family="sans-serif" font-size="10px" fill="#000" opacity="1">DIETETIC AND NUTRITION</text></g></g><path class="foreground" aria-hidden="true" d="" display="none"/></g><g transform="translate(0,78)"><path class="background" aria-hidden="true" d="M0,0h145.4677734375v11h-145.4677734375Z" opacity="1"/><g><g class="mark-symbol role-legend-symbol License_Type_legend_symbols"><path transform="translate(6,6)" d="M5,0A5,5,0,1,1,-5,0A5,5,0,1,1,5,0" fill="#b5cf6b" stroke-width="1.5" opacity="1"/></g><g class="mark-text role-legend-label License_Type_legend_labels"><text text-anchor="start" transform="translate(16,9)" font-family="sans-serif" font-size="10px" fill="#000" opacity="1">FUNERAL AND EMBALMER</text></g></g><path class="foreground" aria-hidden="true" d="" display="none"/></g><g transform="translate(0,91)"><path class="background" aria-hidden="true" d="M0,0h145.4677734375v11h-145.4677734375Z" opacity="1"/><g><g class="mark-symbol role-legend-symbol License_Type_legend_symbols"><path transform="translate(6,6)" d="M5,0A5,5,0,1,1,-5,0A5,5,0,1,1,5,0" fill="#cedb9c" stroke-width="1.5" opacity="1"/></g><g class="mark-text role-legend-label License_Type_legend_labels"><text text-anchor="start" transform="translate(16,9)" font-family="sans-serif" font-size="10px" fill="#000" opacity="1">HOME INSPECTOR</text></g></g><path class="foreground" aria-hidden="true" d="" display="none"/></g><g transform="translate(0,104)"><path class="background" aria-hidden="true" d="M0,0h145.4677734375v11h-145.4677734375Z" opacity="1"/><g><g class="mark-symbol role-legend-symbol License_Type_legend_symbols"><path transform="translate(6,6)" d="M5,0A5,5,0,1,1,-5,0A5,5,0,1,1,5,0" fill="#8c6d31" stroke-width="1.5" opacity="1"/></g><g class="mark-text role-legend-label License_Type_legend_labels"><text text-anchor="start" transform="translate(16,9)" font-family="sans-serif" font-size="10px" fill="#000" opacity="1">LIMITED LIABILITY CO</text></g></g><path class="foreground" aria-hidden="true" d="" display="none"/></g><g transform="translate(0,117)"><path class="background" aria-hidden="true" d="M0,0h145.4677734375v11h-145.4677734375Z" opacity="1"/><g><g class="mark-symbol role-legend-symbol License_Type_legend_symbols"><path transform="translate(6,6)" d="M5,0A5,5,0,1,1,-5,0A5,5,0,1,1,5,0" fill="#bd9e39" stroke-width="1.5" opacity="1"/></g><g class="mark-text role-legend-label License_Type_legend_labels"><text text-anchor="start" transform="translate(16,9)" font-family="sans-serif" font-size="10px" fill="#000" opacity="1">MASSAGE LICENSING BD</text></g></g><path class="foreground" aria-hidden="true" d="" display="none"/></g></g></g><path class="foreground" aria-hidden="true" d="" pointer-events="none" display="none"/></g></g><g class="mark-text role-legend-title" pointer-events="none"><text text-anchor="start" transform="translate(0,9)" font-family="sans-serif" font-size="11px" font-weight="bold" fill="#000" opacity="1">License Type</text></g></g><path class="foreground" aria-hidden="true" d="" pointer-events="none" display="none"/></g></g><g class="mark-group role-title"><g transform="translate(90,-22)"><path class="background" aria-hidden="true" d="M0,0h0v0h0Z" pointer-events="none"/><g><g class="mark-text role-title-text" role="graphics-symbol" aria-roledescription="title" aria-label="Title text 'Top 10 License Types in Midwest States (By % of State total)'" pointer-events="none"><text text-anchor="middle" transform="translate(0,10)" font-family="sans-serif" font-size="13px" font-weight="bold" fill="#000" opacity="1">Top 10 License Types in Midwest States (By % of State total)</text></g></g><path class="foreground" aria-hidden="true" d="" pointer-events="none" display="none"/></g></g></g><path class="foreground" aria-hidden="true" d="" display="none"/></g></g></g></svg>