<svg xmlns="http://www.w3.org/2000/svg" xmlns:xlink="http://www.w3.org/1999/xlink" version="1.1" class="marks" width="348" height="418" viewBox="0 0 348 418"><rect width="348" height="418" fill="white"/><g fill="none" stroke-miterlimit="10" transform="translate(58,27)"><g class="mark-group role-frame root" role="graphics-object" aria-roledescription="group mark container"><g transform="translate(0,0)"><path class="background" aria-hidden="true" d="M0.5,0.5h120v300h-120Z" stroke="#ddd"/><g><g class="mark-group role-axis" aria-hidden="true"><g transform="translate(0.5,0.5)"><path class="background" aria-hidden="true" d="M0,0h0v0h0Z" pointer-events="none"/><g><g class="mark-rule role-axis-grid" pointer-events="none"><line transform="translate(0,300)" x2="120" y2="0" stroke="#ddd" stroke-width="1" opacity="1"/><line transform="translate(0,270)" x2="120" y2="0" stroke="#ddd" stroke-width="1" opacity="1"/><line transform="translate(0,240)" x2="120" y2="0" stroke="#ddd" stroke-width="1" opacity="1"/><line transform="translate(0,210)" x2="120" y2="0" stroke="#ddd" stroke-width="1" opacity="1"/><line transform="translate(0,180)" x2="120" y2="0" stroke="#ddd" stroke-width="1" opacity="1"/><line transform="translate(0,150)" x2="120" y2="0" stroke="#ddd" stroke-width="1" opacity="1"/><line transform="translate(0,120)" x2="120" y2="0" stroke="#ddd" stroke-width="1" opacity="1"/><line transform="translate(0,90)" x2="120" y2="0" stroke="#ddd" stroke-width="1" opacity="1"/><line transform="translate(0,60)" x2="120" y2="0" stroke="#ddd" stroke-width="1" opacity="1"/><line transform="translate(0,30)" x2="120" y2="0" stroke="#ddd" stroke-width="1" opacity="1"/><line transform="translate(0,0)" x2="120" y2="0" stroke="#ddd" stroke-width="1" opacity="1"/></g></g><path class="foreground" aria-hidden="true" d="" pointer-events="none" display="none"/></g></g><g class="mark-group role-axis" role="graphics-symbol" aria-roledescription="axis" aria-label="X-axis titled 'Region' for a discrete scale with 6 values: Alaska-Hawaii, Midwest, Northeast, Pacific, South, West"><g transform="translate(0.5,300.5)"><path class="background" aria-hidden="true" d="M0,0h0v0h0Z" pointer-events="none"/><g><g class="mark-rule role-axis-tick" pointer-events="none"><line transform="translate(10,0)" x2="0" y2="5" stroke="#888" stroke-width="1" opacity="1"/><line transform="translate(30,0)" x2="0" y2="5" stroke="#888" stroke-width="1" opacity="1"/><line transform="translate(50,0)" x2="0" y2="5" stroke="#888" stroke-width="1" opacity="1"/><line transform="translate(70,0)" x2="0" y2="5" stroke="#888" stroke-width="1" opacity="1"/><line transform="translate(90,0)" x2="0" y2="5" stroke="#888" stroke-width="1" opacity="1"/><line transform="translate(110,0)" x2="0" y2="5" stroke="#888" stroke-width="1" opacity="1"/></g><g class="mark-text role-axis-label" pointer-events="none"><text text-anchor="end" transform="translate(9.5,7) rotate(270) translate(0,3)" font-family="sans-serif" font-size="10px" fill="#000" opacity="1">Alaska-Hawaii</text><text text-anchor="end" transform="translate(29.5,7) rotate(270) translate(0,3)" font-family="sans-serif" font-size="10px" fill="#000" opacity="1">Midwest</text><text text-anchor="end" transform="translate(49.5,7) rotate(270) translate(0,3)" font-family="sans-serif" font-size="10px" fill="#000" opacity="1">Northeast</text><text text-anchor="end" transform="translate(69.5,7) rotate(270) translate(0,3)" font-family="sans-serif" font-size="10px" fill="#000" opacity="1">Pacific</text><text text-anchor="end" transform="translate(89.5,7) rotate(270) translate(0,3)" font-family="sans-serif" font-size="10px" fill="#000" opacity="1">South</text><text text-anchor="end" transform="translate(109.5,7) rotate(270) translate(0,3)" font-family="sans-serif" font-size="10px" fill="#000" opacity="1">West</text></g><g class="mark-rule role-axis-domain" pointer-events="none"><line transform="translate(0,0)" x2="120" y2="0" stroke="#888" stroke-width="1" opacity="1"/></g><g class="mark-text role-axis-title" pointer-events="none"><text text-anchor="middle" transform="translate(60,83.3544921875)" font-family="sans-serif" font-size="11px" font-weight="bold" fill="#000" opacity="1">Region</text></g></g><path class="foreground" aria-hidden="true" d="" pointer-events="none" display="none"/></g></g><g class="mark-group role-axis" role="graphics-symbol" aria-roledescription="axis" aria-label="Y-axis titled 'Number of Licenses' for a linear scale with values from 0 to 10,000"><g transform="translate(0.5,0.5)"><path class="background" aria-hidden="true" d="M0,0h0v0h0Z" pointer-events="none"/><g><g class="mark-rule role-axis-tick" pointer-events="none"><line transform="translate(0,300)" x2="-5" y2="0" stroke="#888" stroke-width="1" opacity="1"/><line transform="translate(0,270)" x2="-5" y2="0" stroke="#888" stroke-width="1" opacity="1"/><line transform="translate(0,240)" x2="-5" y2="0" stroke="#888" stroke-width="1" opacity="1"/><line transform="translate(0,210)" x2="-5" y2="0" stroke="#888" stroke-width="1" opacity="1"/><line transform="translate(0,180)" x2="-5" y2="0" stroke="#888" stroke-width="1" opacity="1"/><line transform="translate(0,150)" x2="-5" y2="0" stroke="#888" stroke-width="1" opacity="1"/><line transform="translate(0,120)" x2="-5" y2="0" stroke="#888" stroke-width="1" opacity="1"/><line transform="translate(0,90)" x2="-5" y2="0" stroke="#888" stroke-width="1" opacity="1"/><line transform="translate(0,60)" x2="-5" y2="0" stroke="#888" stroke-width="1" opacity="1"/><line transform="translate(0,30)" x2="-5" y2="0" stroke="#888" stroke-width="1" opacity="1"/><line transform="translate(0,0)" x2="-5" y2="0" stroke="#888" stroke-width="1" opacity="1"/></g><g class="mark-text role-axis-label" pointer-events="none"><text text-anchor="end" transform="translate(-7,303)" font-family="sans-serif" font-size="10px" fill="#000" opacity="1">0</text><text text-anchor="end" transform="translate(-7,273)" font-family="sans-serif" font-size="10px" fill="#000" opacity="1">1,000</text><text text-anchor="end" transform="translate(-7,243)" font-family="sans-serif" font-size="10px" fill="#000" opacity="1">2,000</text><text text-anchor="end" transform="translate(-7,213)" font-family="sans-serif" font-size="10px" fill="#000" opacity="1">3,000</text><text text-anchor="end" transform="translate(-7,183)" font-family="sans-serif" font-size="10px" fill="#000" opacity="1">4,000</text><text text-anchor="end" transform="translate(-7,153)" font-family="sans-serif" font-size="10px" fill="#000" opacity="1">5,000</text><text text-anchor="end" transform="translate(-7,123)" font-family="sans-serif" font-size="10px" fill="#000" opacity="1">6,000</text><text text-anchor="end" transform="translate(-7,93.00000000000001)" font-family="sans-serif" font-size="10px" fill="#000" opacity="1">7,000</text><text text-anchor="end" transform="translate(-7,62.999999999999986)" font-family="sans-serif" font-size="10px" fill="#000" opacity="1">8,000</text><text text-anchor="end" transform="translate(-7,32.99999999999999)" font-family="sans-serif" font-size="10px" fill="#000" opacity="1">9,000</text><text text-anchor="end" transform="translate(-7,3)" font-family="sans-serif" font-size="10px" fill="#000" opacity="1">10,000</text></g><g class="mark-rule role-axis-domain" pointer-events="none"><line transform="translate(0,300)" x2="0" y2="-300" stroke="#888" stroke-width="1" opacity="1"/></g><g class="mark-text role-axis-title" pointer-events="none"><text text-anchor="middle" transform="translate(-41.5859375,150) rotate(-90) translate(0,-2)" font-family="sans-serif" font-size="11px" font-weight="bold" fill="#000" opacity="1">Number of Licenses</text></g></g><path class="foreground" aria-hidden="true" d="" pointer-events="none" display="none"/></g></g><g class="mark-rect role-mark marks" role="graphics-object" aria-roledescription="rect mark container"><path aria-label="Region: Midwest; Number of Licenses: 4775; License Type: DETECTIVE BOARD" role="graphics-symbol" aria-roledescription="bar" d="M21,145.98000000000002h18v143.24999999999994h-18Z" fill="#ad494a" opacity="1"/><path aria-label="Region: Midwest; Number of Licenses: 3550; License Type: COSMO" role="graphics-symbol" aria-roledescription="bar" d="M21,18.600000000000016h18v106.5h-18Z" fill="#bd9e39" opacity="1"/><path aria-label="Region: Midwest; Number of Licenses: 88; License Type: FUNERAL AND EMBALMER" role="graphics-symbol" aria-roledescription="bar" d="M21,291.51h18v2.640000000000043h-18Z" fill="#7b4173" opacity="1"/><path aria-label="Region: Midwest; Number of Licenses: 639; License Type: DENTAL" role="graphics-symbol" aria-roledescription="bar" d="M21,125.10000000000001h18v19.17h-18Z" fill="#e7ba52" opacity="1"/><path aria-label="Region: Pacific; Number of Licenses: 27; License Type: DENTAL" role="graphics-symbol" aria-roledescription="bar" d="M61,298.59h18v0.8100000000000023h-18Z" fill="#e7ba52" opacity="1"/><path aria-label="Region: South; Number of Licenses: 140; License Type: COSMO" role="graphics-symbol" aria-roledescription="bar" d="M81,291.99h18v4.199999999999989h-18Z" fill="#bd9e39" opacity="1"/><path aria-label="Region: West; Number of Licenses: 16; License Type: DETECTIVE BOARD" role="graphics-symbol" aria-roledescription="bar" d="M101,299.28000000000003h18v0.47999999999996135h-18Z" fill="#ad494a" opacity="1"/><path aria-label="Region: Midwest; Number of Licenses: 56; License Type: DESIGN FIRM" role="graphics-symbol" aria-roledescription="bar" d="M21,144.27h18v1.6800000000000068h-18Z" fill="#e7cb94" opacity="1"/><path aria-label="Region: South; Number of Licenses: 60; License Type: DETECTIVE BOARD" role="graphics-symbol" aria-roledescription="bar" d="M81,297.71999999999997h18v1.8000000000000114h-18Z" fill="#ad494a" opacity="1"/><path aria-label="Region: West; Number of Licenses: 33; License Type: COSMO" role="graphics-symbol" aria-roledescription="bar" d="M101,297.75h18v0.9900000000000091h-18Z" fill="#bd9e39" opacity="1"/><path aria-label="Region: Midwest; Number of Licenses: 21; License Type: LIMITED LIABILITY CO" role="graphics-symbol" aria-roledescription="bar" d="M21,297.48h18v0.6299999999999955h-18Z" fill="#637939" opacity="1"/><path aria-label="Region: Northeast; Number of Licenses: 3; License Type: DESIGN FIRM" role="graphics-symbol" aria-roledescription="bar" d="M41,299.58000000000004h18v0.08999999999997499h-18Z" fill="#e7cb94" opacity="1"/><path aria-label="Region: South; Number of Licenses: 1; License Type: ATHLETIC TRAINER" role="graphics-symbol" aria-roledescription="bar" d="M81,291.65999999999997h18v0.03000000000002956h-18Z" fill="#6b6ecf" opacity="1"/><path aria-label="Region: Pacific; Number of Licenses: 8; License Type: DETECTIVE BOARD" role="graphics-symbol" aria-roledescription="bar" d="M61,299.43h18v0.2400000000000091h-18Z" fill="#ad494a" opacity="1"/><path aria-label="Region: Midwest; Number of Licenses: 64; License Type: DIETETIC AND NUTRITION" role="graphics-symbol" aria-roledescription="bar" d="M21,289.22999999999996h18v1.9200000000000728h-18Z" fill="#d6616b" opacity="1"/><path aria-label="Region: Northeast; Number of Licenses: 1; License Type: APPRAISAL" role="graphics-symbol" aria-roledescription="bar" d="M41,298.8h18v0.029999999999972715h-18Z" fill="#393b79" opacity="1"/><path aria-label="Region: South; Number of Licenses: 40; License Type: DENTAL" role="graphics-symbol" aria-roledescription="bar" d="M81,296.19h18v1.1999999999999886h-18Z" fill="#e7ba52" opacity="1"/><path aria-label="Region: Midwest; Number of Licenses: 48; License Type: MASSAGE LICENSING BD" role="graphics-symbol" aria-roledescription="bar" d="M21,298.5h18v1.4399999999999977h-18Z" fill="#b5cf6b" opacity="1"/><path aria-label="Region: South; Number of Licenses: 2; License Type: ARCHITECT" role="graphics-symbol" aria-roledescription="bar" d="M81,291.59999999999997h18v0.060000000000002274h-18Z" fill="#5254a3" opacity="1"/><path aria-label="Region: Pacific; Number of Licenses: 3; License Type: ATHLETICS" role="graphics-symbol" aria-roledescription="bar" d="M61,297.18h18v0.08999999999997499h-18Z" fill="#9c9ede" opacity="1"/><path aria-label="Region: Midwest; Number of Licenses: 13; License Type: MAR AND FAM THERAPIST" role="graphics-symbol" aria-roledescription="bar" d="M21,298.11h18v0.38999999999998636h-18Z" fill="#8ca252" opacity="1"/><path aria-label="Region: South; Number of Licenses: 5; License Type: FUNERAL AND EMBALMER" role="graphics-symbol" aria-roledescription="bar" d="M81,299.61h18v0.14999999999997726h-18Z" fill="#7b4173" opacity="1"/><path aria-label="Region: Pacific; Number of Licenses: 2; License Type: FUNERAL AND EMBALMER" role="graphics-symbol" aria-roledescription="bar" d="M61,299.78999999999996h18v0.06000000000005912h-18Z" fill="#7b4173" opacity="1"/><path aria-label="Region: Midwest; Number of Licenses: 7; License Type: GEOLOGY" role="graphics-symbol" aria-roledescription="bar" d="M21,294.15000000000003h18v0.20999999999997954h-18Z" fill="#a55194" opacity="1"/><path aria-label="Region: Northeast; Number of Licenses: 12; License Type: COSMO" role="graphics-symbol" aria-roledescription="bar" d="M41,299.01h18v0.36000000000001364h-18Z" fill="#bd9e39" opacity="1"/><path aria-label="Region: Midwest; Number of Licenses: 13; License Type: HME AND SERVICES PROV" role="graphics-symbol" aria-roledescription="bar" d="M21,294.36h18v0.38999999999998636h-18Z" fill="#ce6dbd" opacity="1"/><path aria-label="Region: Northeast; Number of Licenses: 2; License Type: COLLECTION AGENCY" role="graphics-symbol" aria-roledescription="bar" d="M41,298.95h18v0.060000000000002274h-18Z" fill="#cedb9c" opacity="1"/><path aria-label="Region: Midwest; Number of Licenses: 12; License Type: ENVIRON. HLTH PRACT" role="graphics-symbol" aria-roledescription="bar" d="M21,291.15000000000003h18v0.3599999999999568h-18Z" fill="#e7969c" opacity="1"/><path aria-label="Region: West; Number of Licenses: 17; License Type: DENTAL" role="graphics-symbol" aria-roledescription="bar" d="M101,298.74h18v0.5099999999999909h-18Z" fill="#e7ba52" opacity="1"/><path aria-label="Region: South; Number of Licenses: 10; License Type: DESIGN FIRM" role="graphics-symbol" aria-roledescription="bar" d="M81,297.39h18v0.30000000000001137h-18Z" fill="#e7cb94" opacity="1"/><path aria-label="Region: Midwest; Number of Licenses: 8; License Type: COLLECTION AGENCY" role="graphics-symbol" aria-roledescription="bar" d="M21,17.25h18v0.24000000000000554h-18Z" fill="#cedb9c" opacity="1"/><path aria-label="Region: West; Number of Licenses: 2; License Type: MASSAGE LICENSING BD" role="graphics-symbol" aria-roledescription="bar" d="M101,299.91h18v0.060000000000002274h-18Z" fill="#b5cf6b" opacity="1"/><path aria-label="Region: Midwest; Number of Licenses: 45; License Type: HOME INSPECTOR" role="graphics-symbol" aria-roledescription="bar" d="M21,294.75h18v1.3500000000000227h-18Z" fill="#de9ed6" opacity="1"/><path aria-label="Region: Midwest; Number of Licenses: 13; License Type: LAND SURVEYOR BOARD" role="graphics-symbol" aria-roledescription="bar" d="M21,296.91h18v0.38999999999998636h-18Z" fill="#6b6ecf" opacity="1"/><path aria-label="Region: Pacific; Number of Licenses: 41; License Type: COSMO" role="graphics-symbol" aria-roledescription="bar" d="M61,297.36h18v1.2299999999999613h-18Z" fill="#bd9e39" opacity="1"/><path aria-label="Region: Alaska-Hawaii; Number of Licenses: 3; License Type: COSMO" role="graphics-symbol" aria-roledescription="bar" d="M1,299.91h18v0.08999999999997499h-18Z" fill="#bd9e39" opacity="1"/><path aria-label="Region: Midwest; Number of Licenses: 20; License Type: CLIN PSYCHOLOGIST" role="graphics-symbol" aria-roledescription="bar" d="M21,16.65h18v0.6000000000000014h-18Z" fill="#b5cf6b" opacity="1"/><path aria-label="Region: Pacific; Number of Licenses: 3; License Type: DIETETIC AND NUTRITION" role="graphics-symbol" aria-roledescription="bar" d="M61,299.67h18v0.08999999999997499h-18Z" fill="#d6616b" opacity="1"/><path aria-label="Region: Midwest; Number of Licenses: 19; License Type: INTERIOR DESIGN" role="graphics-symbol" aria-roledescription="bar" d="M21,296.34000000000003h18v0.5699999999999932h-18Z" fill="#5254a3" opacity="1"/><path aria-label="Region: Midwest; Number of Licenses: 6; License Type: LANDSCAPE ARCHITECT" role="graphics-symbol" aria-roledescription="bar" d="M21,297.3h18v0.18000000000000682h-18Z" fill="#9c9ede" opacity="1"/><path aria-label="Region: South; Number of Licenses: 8; License Type: COLLECTION AGENCY" role="graphics-symbol" aria-roledescription="bar" d="M81,291.75h18v0.2400000000000091h-18Z" fill="#cedb9c" opacity="1"/><path aria-label="Region: Midwest; Number of Licenses: 37; License Type: COMM ASSOC MGR" role="graphics-symbol" aria-roledescription="bar" d="M21,17.490000000000006h18v1.11000000000001h-18Z" fill="#8c6d31" opacity="1"/><path aria-label="Region: Midwest; Number of Licenses: 11; License Type: ATHLETIC TRAINER" role="graphics-symbol" aria-roledescription="bar" d="M21,16.02h18v0.3299999999999983h-18Z" fill="#6b6ecf" opacity="1"/><path aria-label="Region: Midwest; Number of Licenses: 8; License Type: IDPR" role="graphics-symbol" aria-roledescription="bar" d="M21,296.1h18v0.2400000000000091h-18Z" fill="#393b79" opacity="1"/><path aria-label="Region: Northeast; Number of Licenses: 3; License Type: DIETETIC AND NUTRITION" role="graphics-symbol" aria-roledescription="bar" d="M41,299.85h18v0.08999999999997499h-18Z" fill="#d6616b" opacity="1"/><path aria-label="Region: South; Number of Licenses: 1; License Type: INTERIOR DESIGN" role="graphics-symbol" aria-roledescription="bar" d="M81,299.82h18v0.03000000000002956h-18Z" fill="#5254a3" opacity="1"/><path aria-label="Region: Northeast; Number of Licenses: 7; License Type: DENTAL" role="graphics-symbol" aria-roledescription="bar" d="M41,299.37h18v0.21000000000003638h-18Z" fill="#e7ba52" opacity="1"/><path aria-label="Region: Pacific; Number of Licenses: 1; License Type: ATHLETIC TRAINER" role="graphics-symbol" aria-roledescription="bar" d="M61,297.15000000000003h18v0.029999999999972715h-18Z" fill="#6b6ecf" opacity="1"/><path aria-label="Region: Northeast; Number of Licenses: 1; License Type: ATHLETIC TRAINER" role="graphics-symbol" aria-roledescription="bar" d="M41,298.86h18v0.029999999999972715h-18Z" fill="#6b6ecf" opacity="1"/><path aria-label="Region: Pacific; Number of Licenses: 1; License Type: MEDICAL BOARD" role="graphics-symbol" aria-roledescription="bar" d="M61,299.97h18v0.029999999999972715h-18Z" fill="#cedb9c" opacity="1"/><path aria-label="Region: Northeast; Number of Licenses: 6; License Type: DETECTIVE BOARD" role="graphics-symbol" aria-roledescription="bar" d="M41,299.67h18v0.18000000000000682h-18Z" fill="#ad494a" opacity="1"/><path aria-label="Region: West; Number of Licenses: 1; License Type: INTERIOR DESIGN" role="graphics-symbol" aria-roledescription="bar" d="M101,299.85h18v0.029999999999972715h-18Z" fill="#5254a3" opacity="1"/><path aria-label="Region: West; Number of Licenses: 1; License Type: DESIGN FIRM" role="graphics-symbol" aria-roledescription="bar" d="M101,299.25h18v0.03000000000002956h-18Z" fill="#e7cb94" opacity="1"/><path aria-label="Region: Midwest; Number of Licenses: 1; License Type: APPRAISAL" role="graphics-symbol" aria-roledescription="bar" d="M21,15.539999999999987h18v0.029999999999997584h-18Z" fill="#393b79" opacity="1"/><path aria-label="Region: Midwest; Number of Licenses: 15; License Type: ARCHITECT" role="graphics-symbol" aria-roledescription="bar" d="M21,15.569999999999984h18v0.4500000000000153h-18Z" fill="#5254a3" opacity="1"/><path aria-label="Region: Midwest; Number of Licenses: 7; License Type: ATHLETICS" role="graphics-symbol" aria-roledescription="bar" d="M21,16.349999999999998h18v0.2100000000000115h-18Z" fill="#9c9ede" opacity="1"/><path aria-label="Region: South; Number of Licenses: 3; License Type: DIETETIC AND NUTRITION" role="graphics-symbol" aria-roledescription="bar" d="M81,299.52h18v0.09000000000003183h-18Z" fill="#d6616b" opacity="1"/><path aria-label="Region: Northeast; Number of Licenses: 1; License Type: ATHLETICS" role="graphics-symbol" aria-roledescription="bar" d="M41,298.89h18v0.029999999999972715h-18Z" fill="#9c9ede" opacity="1"/><path aria-label="Region: Pacific; Number of Licenses: 1; License Type: ENVIRON. HLTH PRACT" role="graphics-symbol" aria-roledescription="bar" d="M61,299.76h18v0.029999999999972715h-18Z" fill="#e7969c" opacity="1"/><path aria-label="Region: South; Number of Licenses: 2; License Type: ATHLETICS" role="graphics-symbol" aria-roledescription="bar" d="M81,291.69h18v0.060000000000002274h-18Z" fill="#9c9ede" opacity="1"/><path aria-label="Region: South; Number of Licenses: 3; License Type: APPRAISAL" role="graphics-symbol" aria-roledescription="bar" d="M81,291.51h18v0.08999999999997499h-18Z" fill="#393b79" opacity="1"/><path aria-label="Region: Pacific; Number of Licenses: 1; License Type: INTERIOR DESIGN" role="graphics-symbol" aria-roledescription="bar" d="M61,299.91h18v0.029999999999972715h-18Z" fill="#5254a3" opacity="1"/><path aria-label="Region: West; Number of Licenses: 3; License Type: COLLECTION AGENCY" role="graphics-symbol" aria-roledescription="bar" d="M101,297.65999999999997h18v0.09000000000003183h-18Z" fill="#cedb9c" opacity="1"/><path aria-label="Region: Midwest; Number of Licenses: 1; License Type: DETECT. DECEPTION" role="graphics-symbol" aria-roledescription="bar" d="M21,145.95000000000002h18v0.030000000000001137h-18Z" fill="#843c39" opacity="1"/><path aria-label="Region: Midwest; Number of Licenses: 2; License Type: AUCTIONEER" role="graphics-symbol" aria-roledescription="bar" d="M21,16.56000000000001h18v0.059999999999991616h-18Z" fill="#637939" opacity="1"/><path aria-label="Region: Northeast; Number of Licenses: 1; License Type: MAR AND FAM THERAPIST" role="graphics-symbol" aria-roledescription="bar" d="M41,299.94h18v0.03000000000002956h-18Z" fill="#8ca252" opacity="1"/><path aria-label="Region: Pacific; Number of Licenses: 2; License Type: HME AND SERVICES PROV" role="graphics-symbol" aria-roledescription="bar" d="M61,299.85h18v0.060000000000002274h-18Z" fill="#ce6dbd" opacity="1"/><path aria-label="Region: Pacific; Number of Licenses: 3; License Type: CLIN PSYCHOLOGIST" role="graphics-symbol" aria-roledescription="bar" d="M61,297.27h18v0.09000000000003183h-18Z" fill="#b5cf6b" opacity="1"/><path aria-label="Region: South; Number of Licenses: 3; License Type: LAND SURVEYOR BOARD" role="graphics-symbol" aria-roledescription="bar" d="M81,299.85h18v0.08999999999997499h-18Z" fill="#6b6ecf" opacity="1"/><path aria-label="Region: West; Number of Licenses: 1; License Type: ARCHITECT" role="graphics-symbol" aria-roledescription="bar" d="M101,297.63h18v0.029999999999972715h-18Z" fill="#5254a3" opacity="1"/><path aria-label="Region: South; Number of Licenses: 1; License Type: MASSAGE LICENSING BD" role="graphics-symbol" aria-roledescription="bar" d="M81,299.94h18v0.03000000000002956h-18Z" fill="#b5cf6b" opacity="1"/><path aria-label="Region: Northeast; Number of Licenses: 1; License Type: MASSAGE LICENSING BD" role="graphics-symbol" aria-roledescription="bar" d="M41,299.97h18v0.029999999999972715h-18Z" fill="#b5cf6b" opacity="1"/><path aria-label="Region: West; Number of Licenses: 1; License Type: LANDSCAPE ARCHITECT" role="graphics-symbol" aria-roledescription="bar" d="M101,299.88h18v0.03000000000002956h-18Z" fill="#9c9ede" opacity="1"/><path aria-label="Region: West; Number of Licenses: 3; License Type: FUNERAL AND EMBALMER" role="graphics-symbol" aria-roledescription="bar" d="M101,299.76h18v0.09000000000003183h-18Z" fill="#7b4173" opacity="1"/><path aria-label="Region: South; Number of Licenses: 1; License Type: MEDICAL BOARD" role="graphics-symbol" aria-roledescription="bar" d="M81,299.97h18v0.029999999999972715h-18Z" fill="#cedb9c" opacity="1"/><path aria-label="Region: Midwest; Number of Licenses: 2; License Type: MEDICAL BOARD" role="graphics-symbol" aria-roledescription="bar" d="M21,299.94h18v0.060000000000002274h-18Z" fill="#cedb9c" opacity="1"/><path aria-label="Region: South; Number of Licenses: 1; License Type: HME AND SERVICES PROV" role="graphics-symbol" aria-roledescription="bar" d="M81,299.76h18v0.029999999999972715h-18Z" fill="#ce6dbd" opacity="1"/><path aria-label="Region: West; Number of Licenses: 1; License Type: MEDICAL BOARD" role="graphics-symbol" aria-roledescription="bar" d="M101,299.97h18v0.029999999999972715h-18Z" fill="#cedb9c" opacity="1"/><path aria-label="Region: Pacific; Number of Licenses: 1; License Type: ARCHITECT" role="graphics-symbol" aria-roledescription="bar" d="M61,297.12h18v0.03000000000002956h-18Z" fill="#5254a3" opacity="1"/><path aria-label="Region: Midwest; Number of Licenses: 1; License Type: CEMETERY OVERSIGHT" role="graphics-symbol" aria-roledescription="bar" d="M21,16.62h18v0.029999999999997584h-18Z" fill="#8ca252" opacity="1"/><path aria-label="Region: Pacific; Number of Licenses: 1; License Type: DESIGN FIRM" role="graphics-symbol" aria-roledescription="bar" d="M61,299.4h18v0.03000000000002956h-18Z" fill="#e7cb94" opacity="1"/><path aria-label="Region: South; Number of Licenses: 1; License Type: HOME INSPECTOR" role="graphics-symbol" aria-roledescription="bar" d="M81,299.78999999999996h18v0.03000000000002956h-18Z" fill="#de9ed6" opacity="1"/><path aria-label="Region: Northeast; Number of Licenses: 1; License Type: CLIN PSYCHOLOGIST" role="graphics-symbol" aria-roledescription="bar" d="M41,298.91999999999996h18v0.03000000000002956h-18Z" fill="#b5cf6b" opacity="1"/><path aria-label="Region: Pacific; Number of Licenses: 1; License Type: LAND SURVEYOR BOARD" role="graphics-symbol" aria-roledescription="bar" d="M61,299.94h18v0.03000000000002956h-18Z" fill="#6b6ecf" opacity="1"/><path aria-label="Region: South; Number of Licenses: 1; License Type: DETECT. DECEPTION" role="graphics-symbol" aria-roledescription="bar" d="M81,297.69h18v0.029999999999972715h-18Z" fill="#843c39" opacity="1"/><path aria-label="Region: Northeast; Number of Licenses: 1; License Type: ARCHITECT" role="graphics-symbol" aria-roledescription="bar" d="M41,298.83h18v0.03000000000002956h-18Z" fill="#5254a3" opacity="1"/></g><g class="mark-group role-legend" role="graphics-symbol" aria-roledescription="legend" aria-label="Symbol legend titled 'License Type' for fill color with 28 values: APPRAISAL, ARCHITECT, ATHLETIC TRAINER, ATHLETICS, AUCTIONEER, ending with MEDICAL BOARD"><g transform="translate(138,0)"><path class="background" aria-hidden="true" d="M0,0h147v378h-147Z" pointer-events="none"/><g><g class="mark-group role-legend-entry"><g transform="translate(0,16)"><path class="background" aria-hidden="true" d="M0,0h0v0h0Z" pointer-events="none"/><g><g class="mark-group role-scope License_Type_legend_entries" role="graphics-object" aria-roledescription="group mark container"><g transform="translate(0,0)"><path class="background" aria-hidden="true" d="M0,0h146.4052734375v11h-146.4052734375Z" opacity="1"/><g><g class="mark-symbol role-legend-symbol License_Type_legend_symbols"><path transform="translate(6,6)" d="M-5,-5h10v10h-10Z" fill="#393b79" stroke-width="1.5" opacity="1"/></g><g class="mark-text role-legend-label License_Type_legend_labels"><text text-anchor="start" transform="translate(16,9)" font-family="sans-serif" font-size="10px" fill="#000" opacity="1">APPRAISAL</text></g></g><path class="foreground" aria-hidden="true" d="" display="none"/></g><g transform="translate(0,13)"><path class="background" aria-hidden="true" d="M0,0h146.4052734375v11h-146.4052734375Z" opacity="1"/><g><g class="mark-symbol role-legend-symbol License_Type_legend_symbols"><path transform="translate(6,6)" d="M-5,-5h10v10h-10Z" fill="#5254a3" stroke-width="1.5" opacity="1"/></g><g class="mark-text role-legend-label License_Type_legend_labels"><text text-anchor="start" transform="translate(16,9)" font-family="sans-serif" font-size="10px" fill="#000" opacity="1">ARCHITECT</text></g></g><path class="foreground" aria-hidden="true" d="" display="none"/></g><g transform="translate(0,26)"><path class="background" aria-hidden="true" d="M0,0h146.4052734375v11h-146.4052734375Z" opacity="1"/><g><g class="mark-symbol role-legend-symbol License_Type_legend_symbols"><path transform="translate(6,6)" d="M-5,-5h10v10h-10Z" fill="#6b6ecf" stroke-width="1.5" opacity="1"/></g><g class="mark-text role-legend-label License_Type_legend_labels"><text text-anchor="start" transform="translate(16,9)" font-family="sans-serif" font-size="10px" fill="#000" opacity="1">ATHLETIC TRAINER</text></g></g><path class="foreground" aria-hidden="true" d="" display="none"/></g><g transform="translate(0,39)"><path class="background" aria-hidden="true" d="M0,0h146.4052734375v11h-146.4052734375Z" opacity="1"/><g><g class="mark-symbol role-legend-symbol License_Type_legend_symbols"><path transform="translate(6,6)" d="M-5,-5h10v10h-10Z" fill="#9c9ede" stroke-width="1.5" opacity="1"/></g><g class="mark-text role-legend-label License_Type_legend_labels"><text text-anchor="start" transform="translate(16,9)" font-family="sans-serif" font-size="10px" fill="#000" opacity="1">ATHLETICS</text></g></g><path class="foreground" aria-hidden="true" d="" display="none"/></g><g transform="translate(0,52)"><path class="background" aria-hidden="true" d="M0,0h146.4052734375v11h-146.4052734375Z" opacity="1"/><g><g class="mark-symbol role-legend-symbol License_Type_legend_symbols"><path transform="translate(6,6)" d="M-5,-5h10v10h-10Z" fill="#637939" stroke-width="1.5" opacity="1"/></g><g class="mark-text role-legend-label License_Type_legend_labels"><text text-anchor="start" transform="translate(16,9)" font-family="sans-serif" font-size="10px" fill="#000" opacity="1">AUCTIONEER</text></g></g><path class="foreground" aria-hidden="true" d="" display="none"/></g><g transform="translate(0,65)"><path class="background" aria-hidden="true" d="M0,0h146.4052734375v11h-146.4052734375Z" opacity="1"/><g><g class="mark-symbol role-legend-symbol License_Type_legend_symbols"><path transform="translate(6,6)" d="M-5,-5h10v10h-10Z" fill="#8ca252" stroke-width="1.5" opacity="1"/></g><g class="mark-text role-legend-label License_Type_legend_labels"><text text-anchor="start" transform="translate(16,9)" font-family="sans-serif" font-size="10px" fill="#000" opacity="1">CEMETERY OVERSIGHT</text></g></g><path class="foreground" aria-hidden="true" d="" display="none"/></g><g transform="translate(0,78)"><path class="background" aria-hidden="true" d="M0,0h146.4052734375v11h-146.4052734375Z" opacity="1"/><g><g class="mark-symbol role-legend-symbol License_Type_legend_symbols"><path transform="translate(6,6)" d="M-5,-5h10v10h-10Z" fill="#b5cf6b" stroke-width="1.5" opacity="1"/></g><g class="mark-text role-legend-label License_Type_legend_labels"><text text-anchor="start" transform="translate(16,9)" font-family="sans-serif" font-size="10px" fill="#000" opacity="1">CLIN PSYCHOLOGIST</text></g></g><path class="foreground" aria-hidden="true" d="" display="none"/></g><g transform="translate(0,91)"><path class="background" aria-hidden="true" d="M0,0h146.4052734375v11h-146.4052734375Z" opacity="1"/><g><g class="mark-symbol role-legend-symbol License_Type_legend_symbols"><path transform="translate(6,6)" d="M-5,-5h10v10h-10Z" fill="#cedb9c" stroke-width="1.5" opacity="1"/></g><g class="mark-text role-legend-label License_Type_legend_labels"><text text-anchor="start" transform="translate(16,9)" font-family="sans-serif" font-size="10px" fill="#000" opacity="1">COLLECTION AGENCY</text></g></g><path class="foreground" aria-hidden="true" d="" display="none"/></g><g transform="translate(0,104)"><path class="background" aria-hidden="true" d="M0,0h146.4052734375v11h-146.4052734375Z" opacity="1"/><g><g class="mark-symbol role-legend-symbol License_Type_legend_symbols"><path transform="translate(6,6)" d="M-5,-5h10v10h-10Z" fill="#8c6d31" stroke-width="1.5" opacity="1"/></g><g class="mark-text role-legend-label License_Type_legend_labels"><text text-anchor="start" transform="translate(16,9)" font-family="sans-serif" font-size="10px" fill="#000" opacity="1">COMM ASSOC MGR</text></g></g><path class="foreground" aria-hidden="true" d="" display="none"/></g><g transform="translate(0,117)"><path class="background" aria-hidden="true" d="M0,0h146.4052734375v11h-146.4052734375Z" opacity="1"/><g><g class="mark-symbol role-legend-symbol License_Type_legend_symbols"><path transform="translate(6,6)" d="M-5,-5h10v10h-10Z" fill="#bd9e39" stroke-width="1.5" opacity="1"/></g><g class="mark-text role-legend-label License_Type_legend_labels"><text text-anchor="start" transform="translate(16,9)" font-family="sans-serif" font-size="10px" fill="#000" opacity="1">COSMO</text></g></g><path class="foreground" aria-hidden="true" d="" display="none"/></g><g transform="translate(0,130)"><path class="background" aria-hidden="true" d="M0,0h146.4052734375v11h-146.4052734375Z" opacity="1"/><g><g class="mark-symbol role-legend-symbol License_Type_legend_symbols"><path transform="translate(6,6)" d="M-5,-5h10v10h-10Z" fill="#e7ba52" stroke-width="1.5" opacity="1"/></g><g class="mark-text role-legend-label License_Type_legend_labels"><text text-anchor="start" transform="translate(16,9)" font-family="sans-serif" font-size="10px" fill="#000" opacity="1">DENTAL</text></g></g><path class="foreground" aria-hidden="true" d="" display="none"/></g><g transform="translate(0,143)"><path class="background" aria-hidden="true" d="M0,0h146.4052734375v11h-146.4052734375Z" opacity="1"/><g><g class="mark-symbol role-legend-symbol License_Type_legend_symbols"><path transform="translate(6,6)" d="M-5,-5h10v10h-10Z" fill="#e7cb94" stroke-width="1.5" opacity="1"/></g><g class="mark-text role-legend-label License_Type_legend_labels"><text text-anchor="start" transform="translate(16,9)" font-family="sans-serif" font-size="10px" fill="#000" opacity="1">DESIGN FIRM</text></g></g><path class="foreground" aria-hidden="true" d="" display="none"/></g><g transform="translate(0,156)"><path class="background" aria-hidden="true" d="M0,0h146.4052734375v11h-146.4052734375Z" opacity="1"/><g><g class="mark-symbol role-legend-symbol License_Type_legend_symbols"><path transform="translate(6,6)" d="M-5,-5h10v10h-10Z" fill="#843c39" stroke-width="1.5" opacity="1"/></g><g class="mark-text role-legend-label License_Type_legend_labels"><text text-anchor="start" transform="translate(16,9)" font-family="sans-serif" font-size="10px" fill="#000" opacity="1">DETECT. DECEPTION</text></g></g><path class="foreground" aria-hidden="true" d="" display="none"/></g><g transform="translate(0,169)"><path class="background" aria-hidden="true" d="M0,0h146.4052734375v11h-146.4052734375Z" opacity="1"/><g><g class="mark-symbol role-legend-symbol License_Type_legend_symbols"><path transform="translate(6,6)" d="M-5,-5h10v10h-10Z" fill="#ad494a" stroke-width="1.5" opacity="1"/></g><g class="mark-text role-legend-label License_Type_legend_labels"><text text-anchor="start" transform="translate(16,9)" font-family="sans-serif" font-size="10px" fill="#000" opacity="1">DETECTIVE BOARD</text></g></g><path class="foreground" aria-hidden="true" d="" display="none"/></g><g transform="translate(0,182)"><path class="background" aria-hidden="true" d="M0,0h146.4052734375v11h-146.4052734375Z" opacity="1"/><g><g class="mark-symbol role-legend-symbol License_Type_legend_symbols"><path transform="translate(6,6)" d="M-5,-5h10v10h-10Z" fill="#d6616b" stroke-width="1.5" opacity="1"/></g><g class="mark-text role-legend-label License_Type_legend_labels"><text text-anchor="start" transform="translate(16,9)" font-family="sans-serif" font-size="10px" fill="#000" opacity="1">DIETETIC AND NUTRITION</text></g></g><path class="foreground" aria-hidden="true" d="" display="none"/></g><g transform="translate(0,195)"><path class="background" aria-hidden="true" d="M0,0h146.4052734375v11h-146.4052734375Z" opacity="1"/><g><g class="mark-symbol role-legend-symbol License_Type_legend_symbols"><path transform="translate(6,6)" d="M-5,-5h10v10h-10Z" fill="#e7969c" stroke-width="1.5" opacity="1"/></g><g class="mark-text role-legend-label License_Type_legend_labels"><text text-anchor="start" transform="translate(16,9)" font-family="sans-serif" font-size="10px" fill="#000" opacity="1">ENVIRON. HLTH PRACT</text></g></g><path class="foreground" aria-hidden="true" d="" display="none"/></g><g transform="translate(0,208)"><path class="background" aria-hidden="true" d="M0,0h146.4052734375v11h-146.4052734375Z" opacity="1"/><g><g class="mark-symbol role-legend-symbol License_Type_legend_symbols"><path transform="translate(6,6)" d="M-5,-5h10v10h-10Z" fill="#7b4173" stroke-width="1.5" opacity="1"/></g><g class="mark-text role-legend-label License_Type_legend_labels"><text text-anchor="start" transform="translate(16,9)" font-family="sans-serif" font-size="10px" fill="#000" opacity="1">FUNERAL AND EMBALMER</text></g></g><path class="foreground" aria-hidden="true" d="" display="none"/></g><g transform="translate(0,221)"><path class="background" aria-hidden="true" d="M0,0h146.4052734375v11h-146.4052734375Z" opacity="1"/><g><g class="mark-symbol role-legend-symbol License_Type_legend_symbols"><path transform="translate(6,6)" d="M-5,-5h10v10h-10Z" fill="#a55194" stroke-width="1.5" opacity="1"/></g><g class="mark-text role-legend-label License_Type_legend_labels"><text text-anchor="start" transform="translate(16,9)" font-family="sans-serif" font-size="10px" fill="#000" opacity="1">GEOLOGY</text></g></g><path class="foreground" aria-hidden="true" d="" display="none"/></g><g transform="translate(0,234)"><path class="background" aria-hidden="true" d="M0,0h146.4052734375v11h-146.4052734375Z" opacity="1"/><g><g class="mark-symbol role-legend-symbol License_Type_legend_symbols"><path transform="translate(6,6)" d="M-5,-5h10v10h-10Z" fill="#ce6dbd" stroke-width="1.5" opacity="1"/></g><g class="mark-text role-legend-label License_Type_legend_labels"><text text-anchor="start" transform="translate(16,9)" font-family="sans-serif" font-size="10px" fill="#000" opacity="1">HME AND SERVICES PROV</text></g></g><path class="foreground" aria-hidden="true" d="" display="none"/></g><g transform="translate(0,247)"><path class="background" aria-hidden="true" d="M0,0h146.4052734375v11h-146.4052734375Z" opacity="1"/><g><g class="mark-symbol role-legend-symbol License_Type_legend_symbols"><path transform="translate(6,6)" d="M-5,-5h10v10h-10Z" fill="#de9ed6" stroke-width="1.5" opacity="1"/></g><g class="mark-text role-legend-label License_Type_legend_labels"><text text-anchor="start" transform="translate(16,9)" font-family="sans-serif" font-size="10px" fill="#000" opacity="1">HOME INSPECTOR</text></g></g><path class="foreground" aria-hidden="true" d="" display="none"/></g><g transform="translate(0,260)"><path class="background" aria-hidden="true" d="M0,0h146.4052734375v11h-146.4052734375Z" opacity="1"/><g><g class="mark-symbol role-legend-symbol License_Type_legend_symbols"><path transform="translate(6,6)" d="M-5,-5h10v10h-10Z" fill="#393b79" stroke-width="1.5" opacity="1"/></g><g class="mark-text role-legend-label License_Type_legend_labels"><text text-anchor="start" transform="translate(16,9)" font-family="sans-serif" font-size="10px" fill="#000" opacity="1">IDPR</text></g></g><path class="foreground" aria-hidden="true" d="" display="none"/></g><g transform="translate(0,273)"><path class="background" aria-hidden="true" d="M0,0h146.4052734375v11h-146.4052734375Z" opacity="1"/><g><g class="mark-symbol role-legend-symbol License_Type_legend_symbols"><path transform="translate(6,6)" d="M-5,-5h10v10h-10Z" fill="#5254a3" stroke-width="1.5" opacity="1"/></g><g class="mark-text role-legend-label License_Type_legend_labels"><text text-anchor="start" transform="translate(16,9)" font-family="sans-serif" font-size="10px" fill="#000" opacity="1">INTERIOR DESIGN</text></g></g><path class="foreground" aria-hidden="true" d="" display="none"/></g><g transform="translate(0,286)"><path class="background" aria-hidden="true" d="M0,0h146.4052734375v11h-146.4052734375Z" opacity="1"/><g><g class="mark-symbol role-legend-symbol License_Type_legend_symbols"><path transform="translate(6,6)" d="M-5,-5h10v10h-10Z" fill="#6b6ecf" stroke-width="1.5" opacity="1"/></g><g class="mark-text role-legend-label License_Type_legend_labels"><text text-anchor="start" transform="translate(16,9)" font-family="sans-serif" font-size="10px" fill="#000" opacity="1">LAND SURVEYOR BOARD</text></g></g><path class="foreground" aria-hidden="true" d="" display="none"/></g><g transform="translate(0,299)"><path class="background" aria-hidden="true" d="M0,0h146.4052734375v11h-146.4052734375Z" opacity="1"/><g><g class="mark-symbol role-legend-symbol License_Type_legend_symbols"><path transform="translate(6,6)" d="M-5,-5h10v10h-10Z" fill="#9c9ede" stroke-width="1.5" opacity="1"/></g><g class="mark-text role-legend-label License_Type_legend_labels"><text text-anchor="start" transform="translate(16,9)" font-family="sans-serif" font-size="10px" fill="#000" opacity="1">LANDSCAPE ARCHITECT</text></g></g><path class="foreground" aria-hidden="true" d="" display="none"/></g><g transform="translate(0,312)"><path class="background" aria-hidden="true" d="M0,0h146.4052734375v11h-146.4052734375Z" opacity="1"/><g><g class="mark-symbol role-legend-symbol License_Type_legend_symbols"><path transform="translate(6,6)" d="M-5,-5h10v10h-10Z" fill="#637939" stroke-width="1.5" opacity="1"/></g><g class="mark-text role-legend-label License_Type_legend_labels"><text text-anchor="start" transform="translate(16,9)" font-family="sans-serif" font-size="10px" fill="#000" opacity="1">LIMITED LIABILITY CO</text></g></g><path class="foreground" aria-hidden="true" d="" display="none"/></g><g transform="translate(0,325)"><path class="background" aria-hidden="true" d="M0,0h146.4052734375v11h-146.4052734375Z" opacity="1"/><g><g class="mark-symbol role-legend-symbol License_Type_legend_symbols"><path transform="translate(6,6)" d="M-5,-5h10v10h-10Z" fill="#8ca252" stroke-width="1.5" opacity="1"/></g><g class="mark-text role-legend-label License_Type_legend_labels"><text text-anchor="start" transform="translate(16,9)" font-family="sans-serif" font-size="10px" fill="#000" opacity="1">MAR AND FAM THERAPIST</text></g></g><path class="foreground" aria-hidden="true" d="" display="none"/></g><g transform="translate(0,338)"><path class="background" aria-hidden="true" d="M0,0h146.4052734375v11h-146.4052734375Z" opacity="1"/><g><g class="mark-symbol role-legend-symbol License_Type_legend_symbols"><path transform="translate(6,6)" d="M-5,-5h10v10h-10Z" fill="#b5cf6b" stroke-width="1.5" opacity="1"/></g><g class="mark-text role-legend-label License_Type_legend_labels"><text text-anchor="start" transform="translate(16,9)" font-family="sans-serif" font-size="10px" fill="#000" opacity="1">MASSAGE LICENSING BD</text></g></g><path class="foreground" aria-hidden="true" d="" display="none"/></g><g transform="translate(0,351)"><path class="background" aria-hidden="true" d="M0,0h146.4052734375v11h-146.4052734375Z" opacity="1"/><g><g class="mark-symbol role-legend-symbol License_Type_legend_symbols"><path transform="translate(6,6)" d="M-5,-5h10v10h-10Z" fill="#cedb9c" stroke-width="1.5" opacity="1"/></g><g class="mark-text role-legend-label License_Type_legend_labels"><text text-anchor="start" transform="translate(16,9)" font-family="sans-serif" font-size="10px" fill="#000" opacity="1">MEDICAL BOARD</text></g></g><path class="foreground" aria-hidden="true" d="" display="none"/></g></g></g><path class="foreground" aria-hidden="true" d="" pointer-events="none" display="none"/></g></g><g class="mark-text role-legend-title" pointer-events="none"><text text-anchor="start" transform="translate(0,9)" font-family="sans-serif" font-size="11px" font-weight="bold" fill="#000" opacity="1">License Type</text></g></g><path class="foreground" aria-hidden="true" d="" pointer-events="none" display="none"/></g></g><g class="mark-group role-title"><g transform="translate(60,-22)"><path class="background" aria-hidden="true" d="M0,0h0v0h0Z" pointer-events="none"/><g><g class="mark-text role-title-text" role="graphics-symbol" aria-roledescription="title" aria-label="Title text 'License Type Distribution by Region'" pointer-events="none"><text text-anchor="middle" transform="translate(0,10)" font-family="sans-serif" font-size="13px" font-weight="bold" fill="#000" opacity="1">License Type Distribution by Region</text></g></g><path class="foreground" aria-hidden="true" d="" pointer-events="none" display="none"/></g></g></g><path class="foreground" aria-hidden="true" d="" display="none"/></g></g></g></svg>